<svg width="74" height="96" viewBox="0 0 74 96" fill="none" xmlns="http://www.w3.org/2000/svg">
<mask id="path-1-outside-1_1_3" maskUnits="userSpaceOnUse" x="0" y="0" width="74" height="96" fill="black">
<rect fill="white" width="74" height="96"/>
<path d="M1.09091 95V1.90909H38.3636C45.2121 1.90909 50.9242 2.92424 55.5 4.95454C60.0758 6.98485 63.5152 9.80303 65.8182 13.4091C68.1212 16.9848 69.2727 21.1061 69.2727 25.7727C69.2727 29.4091 68.5455 32.6061 67.0909 35.3636C65.6364 38.0909 63.6364 40.3333 61.0909 42.0909C58.5758 43.8182 55.697 45.0455 52.4545 45.7727V46.6818C56 46.8333 59.3182 47.8333 62.4091 49.6818C65.5303 51.5303 68.0606 54.1212 70 57.4545C71.9394 60.7576 72.9091 64.697 72.9091 69.2727C72.9091 74.2121 71.6818 78.6212 69.2273 82.5C66.803 86.3485 63.2121 89.3939 58.4545 91.6364C53.697 93.8788 47.8333 95 40.8636 95H1.09091ZM20.7727 78.9091H36.8182C42.303 78.9091 46.303 77.8636 48.8182 75.7727C51.3333 73.6515 52.5909 70.8333 52.5909 67.3182C52.5909 64.7424 51.9697 62.4697 50.7273 60.5C49.4849 58.5303 47.7121 56.9848 45.4091 55.8636C43.1364 54.7424 40.4242 54.1818 37.2727 54.1818H20.7727V78.9091ZM20.7727 40.8636H35.3636C38.0606 40.8636 40.4545 40.3939 42.5455 39.4545C44.6667 38.4848 46.3333 37.1212 47.5455 35.3636C48.7879 33.6061 49.4091 31.5 49.4091 29.0455C49.4091 25.6818 48.2121 22.9697 45.8182 20.9091C43.4545 18.8485 40.0909 17.8182 35.7273 17.8182H20.7727V40.8636Z"/>
</mask>
<path d="M1.09091 95H0.090909V96H1.09091V95ZM1.09091 1.90909V0.909088H0.090909V1.90909H1.09091ZM55.5 4.95454L55.0944 5.8686L55.0944 5.86861L55.5 4.95454ZM65.8182 13.4091L64.9754 13.9473L64.9775 13.9506L65.8182 13.4091ZM67.0909 35.3636L67.9733 35.8342L67.9754 35.8302L67.0909 35.3636ZM61.0909 42.0909L61.657 42.9152L61.6591 42.9138L61.0909 42.0909ZM52.4545 45.7727L52.2357 44.797L51.4545 44.9722V45.7727H52.4545ZM52.4545 46.6818H51.4545V47.64L52.4119 47.6809L52.4545 46.6818ZM62.4091 49.6818L61.8958 50.5401L61.8995 50.5422L62.4091 49.6818ZM70 57.4545L69.1356 57.9574L69.1377 57.9609L70 57.4545ZM69.2273 82.5L68.3823 81.9653L68.3812 81.967L69.2273 82.5ZM58.4545 91.6364L58.0282 90.7318L58.0282 90.7318L58.4545 91.6364ZM20.7727 78.9091H19.7727V79.9091H20.7727V78.9091ZM48.8182 75.7727L49.4575 76.5417L49.4629 76.5372L48.8182 75.7727ZM50.7273 60.5L49.8815 61.0335L49.8815 61.0335L50.7273 60.5ZM45.4091 55.8636L44.9667 56.7605L44.9714 56.7627L45.4091 55.8636ZM20.7727 54.1818V53.1818H19.7727V54.1818H20.7727ZM20.7727 40.8636H19.7727V41.8636H20.7727V40.8636ZM42.5455 39.4545L42.9553 40.3667L42.9612 40.364L42.5455 39.4545ZM47.5455 35.3636L46.7288 34.7864L46.7222 34.7959L47.5455 35.3636ZM45.8182 20.9091L45.161 21.6629L45.1658 21.667L45.8182 20.9091ZM20.7727 17.8182V16.8182H19.7727V17.8182H20.7727ZM1.09091 95H2.09091V1.90909H1.09091H0.090909V95H1.09091ZM1.09091 1.90909V2.90909H38.3636V1.90909V0.909088H1.09091V1.90909ZM38.3636 1.90909V2.90909C45.1208 2.90909 50.6842 3.91175 55.0944 5.8686L55.5 4.95454L55.9056 4.04048C51.1643 1.93673 45.3035 0.909088 38.3636 0.909088V1.90909ZM55.5 4.95454L55.0944 5.86861C59.5219 7.83311 62.795 10.5333 64.9754 13.9473L65.8182 13.4091L66.661 12.8708C64.2353 9.07272 60.6296 6.13659 55.9056 4.04048L55.5 4.95454ZM65.8182 13.4091L64.9775 13.9506C67.1665 17.3493 68.2727 21.2787 68.2727 25.7727H69.2727H70.2727C70.2727 20.9334 69.0759 16.6204 66.6589 12.8676L65.8182 13.4091ZM69.2727 25.7727H68.2727C68.2727 29.2736 67.5734 32.3055 66.2064 34.8971L67.0909 35.3636L67.9754 35.8302C69.5175 32.9066 70.2727 29.5446 70.2727 25.7727H69.2727ZM67.0909 35.3636L66.2086 34.893C64.8292 37.4794 62.9369 39.601 60.5227 41.268L61.0909 42.0909L61.6591 42.9138C64.3358 41.0656 66.4436 38.7024 67.9733 35.8342L67.0909 35.3636ZM61.0909 42.0909L60.5248 41.2666C58.1237 42.9155 55.3649 44.0951 52.2357 44.797L52.4545 45.7727L52.6734 46.7485C56.029 45.9958 59.0278 44.7208 61.657 42.9152L61.0909 42.0909ZM52.4545 45.7727H51.4545V46.6818H52.4545H53.4545V45.7727H52.4545ZM52.4545 46.6818L52.4119 47.6809C55.7886 47.8252 58.9454 48.7756 61.8958 50.5401L62.4091 49.6818L62.9224 48.8236C59.691 46.8911 56.2114 45.8415 52.4972 45.6827L52.4545 46.6818ZM62.4091 49.6818L61.8995 50.5422C64.8646 52.2983 67.2765 54.762 69.1357 57.9574L70 57.4545L70.8643 56.9517C68.8447 53.4804 66.196 50.7623 62.9187 48.8214L62.4091 49.6818ZM70 57.4545L69.1377 57.9609C70.9708 61.0829 71.9091 64.8402 71.9091 69.2727H72.9091H73.9091C73.9091 64.5537 72.908 60.4322 70.8623 56.9482L70 57.4545ZM72.9091 69.2727H71.9091C71.9091 74.0378 70.7278 78.2587 68.3823 81.9653L69.2273 82.5L70.0723 83.0347C72.6358 78.9837 73.9091 74.3864 73.9091 69.2727H72.9091ZM69.2273 82.5L68.3812 81.967C66.0736 85.6302 62.6408 88.5577 58.0282 90.7318L58.4545 91.6364L58.8809 92.5409C63.7834 90.2302 67.5324 87.0668 70.0734 83.033L69.2273 82.5ZM58.4545 91.6364L58.0282 90.7318C53.4399 92.8944 47.7317 94 40.8636 94V95V96C47.935 96 53.954 94.8631 58.8809 92.5409L58.4545 91.6364ZM40.8636 95V94H1.09091V95V96H40.8636V95ZM20.7727 78.9091V79.9091H36.8182V78.9091V77.9091H20.7727V78.9091ZM36.8182 78.9091V79.9091C42.3913 79.9091 46.676 78.854 49.4575 76.5417L48.8182 75.7727L48.1789 75.0037C45.93 76.8733 42.2148 77.9091 36.8182 77.9091V78.9091ZM48.8182 75.7727L49.4629 76.5372C52.2203 74.2116 53.5909 71.1051 53.5909 67.3182H52.5909H51.5909C51.5909 70.5616 50.4464 73.0914 48.1735 75.0083L48.8182 75.7727ZM52.5909 67.3182H53.5909C53.5909 64.5743 52.9267 62.1126 51.5731 59.9665L50.7273 60.5L49.8815 61.0335C51.0127 62.8268 51.5909 64.9105 51.5909 67.3182H52.5909ZM50.7273 60.5L51.5731 59.9665C50.2215 57.8238 48.3 56.1588 45.8468 54.9645L45.4091 55.8636L44.9714 56.7627C47.1243 57.8109 48.7482 59.2368 49.8815 61.0335L50.7273 60.5ZM45.4091 55.8636L45.8515 54.9668C43.4118 53.7632 40.5411 53.1818 37.2727 53.1818V54.1818V55.1818C40.3073 55.1818 42.8609 55.7216 44.9667 56.7604L45.4091 55.8636ZM37.2727 54.1818V53.1818H20.7727V54.1818V55.1818H37.2727V54.1818ZM20.7727 54.1818H19.7727V78.9091H20.7727H21.7727V54.1818H20.7727ZM20.7727 40.8636V41.8636H35.3636V40.8636V39.8636H20.7727V40.8636ZM35.3636 40.8636V41.8636C38.1772 41.8636 40.7147 41.3733 42.9553 40.3667L42.5455 39.4545L42.1356 38.5424C40.1943 39.4146 37.944 39.8636 35.3636 39.8636V40.8636ZM42.5455 39.4545L42.9612 40.364C45.2309 39.3264 47.0447 37.8511 48.3687 35.9314L47.5455 35.3636L46.7222 34.7959C45.622 36.3913 44.1024 37.6433 42.1297 38.5451L42.5455 39.4545ZM47.5455 35.3636L48.362 35.9409C49.7401 33.9914 50.4091 31.6766 50.4091 29.0455H49.4091H48.4091C48.4091 31.3234 47.8357 33.2207 46.7289 34.7864L47.5455 35.3636ZM49.4091 29.0455H50.4091C50.4091 25.4121 49.101 22.4153 46.4706 20.1512L45.8182 20.9091L45.1658 21.667C47.3233 23.5241 48.4091 25.9515 48.4091 29.0455H49.4091ZM45.8182 20.9091L46.4753 20.1553C43.8692 17.8833 40.2382 16.8182 35.7273 16.8182V17.8182V18.8182C39.9436 18.8182 43.0399 19.8136 45.161 21.6629L45.8182 20.9091ZM35.7273 17.8182V16.8182H20.7727V17.8182V18.8182H35.7273V17.8182ZM20.7727 17.8182H19.7727V40.8636H20.7727H21.7727V17.8182H20.7727Z" fill="black" mask="url(#path-1-outside-1_1_3)"/>
</svg>
