<svg width="72" height="94" viewBox="0 0 72 94" fill="none" xmlns="http://www.w3.org/2000/svg">
<path d="M0.090909 94V0.909088H37.3636C44.2121 0.909088 49.9242 1.92424 54.5 3.95454C59.0758 5.98485 62.5152 8.80303 64.8182 12.4091C67.1212 15.9848 68.2727 20.1061 68.2727 24.7727C68.2727 28.4091 67.5455 31.6061 66.0909 34.3636C64.6364 37.0909 62.6364 39.3333 60.0909 41.0909C57.5758 42.8182 54.697 44.0455 51.4545 44.7727V45.6818C55 45.8333 58.3182 46.8333 61.4091 48.6818C64.5303 50.5303 67.0606 53.1212 69 56.4545C70.9394 59.7576 71.9091 63.697 71.9091 68.2727C71.9091 73.2121 70.6818 77.6212 68.2273 81.5C65.803 85.3485 62.2121 88.3939 57.4545 90.6364C52.697 92.8788 46.8333 94 39.8636 94H0.090909ZM19.7727 77.9091H35.8182C41.303 77.9091 45.303 76.8636 47.8182 74.7727C50.3333 72.6515 51.5909 69.8333 51.5909 66.3182C51.5909 63.7424 50.9697 61.4697 49.7273 59.5C48.4849 57.5303 46.7121 55.9848 44.4091 54.8636C42.1364 53.7424 39.4242 53.1818 36.2727 53.1818H19.7727V77.9091ZM19.7727 39.8636H34.3636C37.0606 39.8636 39.4545 39.3939 41.5455 38.4545C43.6667 37.4848 45.3333 36.1212 46.5455 34.3636C47.7879 32.6061 48.4091 30.5 48.4091 28.0455C48.4091 24.6818 47.2121 21.9697 44.8182 19.9091C42.4545 17.8485 39.0909 16.8182 34.7273 16.8182H19.7727V39.8636Z" fill="white"/>
</svg>
